<?xml version="1.0" encoding="utf-8"?>
<!-- Designed by Vexels.com - 2016 All Rights Reserved - https://vexels.com/terms-and-conditions/  -->

<svg version="1.1" id="Layer_1" xmlns="http://www.w3.org/2000/svg" xmlns:xlink="http://www.w3.org/1999/xlink" x="0px" y="0px"
	 width="1200px" height="1200px" viewBox="0 0 1200 1200" enable-background="new 0 0 1200 1200" xml:space="preserve">
<g>
	<path fill="#25526B" d="M992.029,516.883c0,257.852-209.031,466.893-466.883,466.893S58.262,774.735,58.262,516.883
		S267.293,50,525.145,50S992.029,259.031,992.029,516.883z"/>
	<g>
		<defs>
			<path id="SVGID_1_" d="M992.029,516.883c0,257.852-209.031,466.893-466.883,466.893S58.262,774.735,58.262,516.883
				S267.293,50,525.145,50S992.029,259.031,992.029,516.883z"/>
		</defs>
		<clipPath id="SVGID_2_">
			<use xlink:href="#SVGID_1_"  overflow="visible"/>
		</clipPath>
		<linearGradient id="SVGID_3_" gradientUnits="userSpaceOnUse" x1="1027.8893" y1="1011.6866" x2="557.7906" y2="622.1759">
			<stop  offset="0" style="stop-color:#FFFFFF"/>
			<stop  offset="0.0718" style="stop-color:#DFDFDF"/>
			<stop  offset="0.2156" style="stop-color:#A5A5A5"/>
			<stop  offset="0.3593" style="stop-color:#727272"/>
			<stop  offset="0.4998" style="stop-color:#494949"/>
			<stop  offset="0.6362" style="stop-color:#292929"/>
			<stop  offset="0.7674" style="stop-color:#121212"/>
			<stop  offset="0.8912" style="stop-color:#050505"/>
			<stop  offset="1" style="stop-color:#000000"/>
		</linearGradient>
		<polygon opacity="0.5" clip-path="url(#SVGID_2_)" fill="url(#SVGID_3_)" points="351.588,774.755 726.821,1150 
			1083.338,1133.265 1141.738,812.063 875.258,543.348 607.586,275.665 632.166,390.613 621.415,379.851 576.23,291.649 
			526.108,264.623 412.754,343.285 414.898,483.113 445.871,544.44 432.449,582.488 457.626,675.45 355.646,577.578 
			353.571,653.305 		"/>
	</g>
	<g>
		<path opacity="0.2" d="M583.676,734.692c0,0,43.74,3.347,89.916-13.047l-5.772-13.367
			C667.82,708.278,657.8,727.709,583.676,734.692z"/>
		<g>
			<path fill="#FAB30B" d="M649.612,470.206l-208.19,0.521c-0.821-5.972-1.472-12.095-1.472-18.378l-0.141-52.479
				c-0.141-58.821,36.706-106.559,82.331-106.65c45.513-0.181,82.57,47.267,82.82,105.858l49.282-0.09v-2.856
				c-0.21-87.13-59.413-157.625-132.243-157.385c-72.791,0.16-131.671,70.906-131.431,158.036l0.16,74.995
				c-34.07,4.579-60.404,33.509-60.304,68.881l0.44,184.932c0.101,38.419,31.345,69.534,69.805,69.423l249.755-0.661
				c38.439-0.061,69.534-31.325,69.443-69.744l-0.451-184.932C719.316,501.231,688.062,470.097,649.612,470.206z M552.041,629.355
				l12.706,64.994c0.061,24.741-16.013,44.842-35.935,44.893c-19.881,0.04-36.094-19.961-36.154-44.712l13.888-65.936
				c-13.658-7.596-23.048-22.006-23.067-38.73c-0.08-24.641,19.881-44.713,44.531-44.753c24.631-0.07,44.682,19.872,44.733,44.562
				c0.061,15.873-8.297,29.732-20.733,37.678C552.011,628.073,552.041,628.594,552.041,629.355z"/>
		</g>
		<path opacity="0.5" fill="#FFFFFF" d="M390.027,486.561c0,0-47.178,6.894-47.178,72.499v73.662c0,0-7.936-128.896,67.9-134.657
			C410.75,498.064,391.189,498.064,390.027,486.561z"/>
		<path opacity="0.5" fill="#FFFFFF" d="M407.303,335.81c0,0,31.074-93.213,126.581-93.213c0,0-28.098,4.78-23.489,25.472
			C510.395,268.069,449.008,268.53,407.303,335.81z"/>
		<path opacity="0.2" d="M348.621,736.286c0,0,2.294,47.178,67.89,47.178h232.47c0,0,56.376-10.342,56.376-49.463
			c0,0-12.665,23.709-59.262,25.644H417.664C417.664,759.644,363.572,755.846,348.621,736.286z"/>
		<path opacity="0.5" fill="#FFFFFF" d="M640.924,486.561c0,0,56.005-9.72,64.433,44.882v47.178
			C705.357,578.621,698.453,504.959,640.924,486.561z"/>
	</g>
</g>
</svg>
